<svg width="48" height="48" viewBox="0 0 48 48" fill="none" xmlns="http://www.w3.org/2000/svg">
<path d="M39.33 33.622C38.7762 34.913 38.092 36.144 37.288 37.296C36.214 38.83 35.332 39.89 34.656 40.48C33.606 41.444 32.478 41.94 31.272 41.968C30.408 41.968 29.364 41.722 28.148 41.222C26.928 40.724 25.808 40.48 24.782 40.48C23.708 40.48 22.556 40.724 21.322 41.222C20.09 41.722 19.094 41.984 18.332 42.008C17.178 42.058 16.024 41.55 14.874 40.48C14.14 39.84 13.222 38.74 12.12 37.184C10.94 35.526 9.97004 33.596 9.21004 31.402C8.39604 29.028 7.98804 26.732 7.98804 24.508C7.98804 21.962 8.53804 19.764 9.64004 17.924C10.4735 16.4789 11.6651 15.2729 13.1 14.422C14.515 13.5733 16.1302 13.1164 17.78 13.098C18.7 13.098 19.906 13.382 21.4 13.942C22.894 14.502 23.854 14.786 24.272 14.786C24.588 14.786 25.65 14.452 27.458 13.79C29.164 13.176 30.604 12.922 31.784 13.022C34.984 13.28 37.386 14.54 38.984 16.812C36.124 18.546 34.71 20.972 34.738 24.086C34.762 26.512 35.644 28.53 37.372 30.132C38.136 30.8631 39.0273 31.448 40.002 31.858C39.79 32.472 39.566 33.058 39.33 33.622ZM31.996 4.75999C31.996 6.65999 31.3 8.43599 29.918 10.078C28.246 12.03 26.226 13.16 24.036 12.982C24.0074 12.7431 23.9934 12.5026 23.994 12.262C23.994 10.436 24.786 8.48399 26.2 6.88599C26.904 6.07799 27.8 5.40399 28.886 4.86799C29.97 4.33999 30.994 4.04799 31.958 3.99799C31.984 4.25399 31.996 4.50799 31.996 4.75999Z" fill="#280147"/>
</svg>
