<svg width="468" height="113" viewBox="0 0 468 113" fill="none" xmlns="http://www.w3.org/2000/svg">
<g filter="url(#filter0_d_28_305)">
<path d="M41.8081 24.224C42.2934 24.224 42.5361 24.4853 42.5361 25.008L41.7521 49.2C41.7521 49.9467 42.1254 50.32 42.8721 50.32H45.5041V73H28.4801C27.9201 73 27.4534 72.832 27.0801 72.496C26.7441 72.1227 26.5574 71.656 26.5201 71.096L25.9041 52.952C25.8667 52.504 25.9787 52.1307 26.2401 51.832C26.5387 51.5333 26.9121 51.3653 27.3601 51.328L36.8241 50.712L26.9681 49.648C26.4454 49.5733 26.1841 49.2933 26.1841 48.808L24.8401 31.056C24.7654 30.5707 24.8027 30.0853 24.9521 29.6C25.1014 29.1147 25.3254 28.6853 25.6241 28.312L27.7521 25.4C28.0881 24.9147 28.5174 24.5413 29.0401 24.28C29.6001 24.0187 30.1787 23.888 30.7761 23.888L41.8081 24.224Z" fill="white"/>
<path d="M49.6923 50.656C49.4683 50.6933 49.3563 50.5813 49.3563 50.32L49.9163 41.64C49.9909 40.9307 50.2336 40.3707 50.6443 39.96C51.0923 39.512 51.6709 39.2693 52.3803 39.232L72.7643 38.28C73.2496 38.2053 73.5856 38.4293 73.7723 38.952C74.2949 40.5947 74.7243 42.368 75.0603 44.272C75.3963 46.176 75.7696 48.192 76.1803 50.32H79.9323V73H72.0363C71.3269 73 70.5616 72.9627 69.7403 72.888C68.9189 72.8133 68.1723 72.7387 67.5003 72.664L56.1323 70.872C55.6843 70.76 55.2923 70.928 54.9563 71.376L54.7323 71.712C54.4709 72.1227 54.1163 72.44 53.6683 72.664C53.2576 72.888 52.8283 73 52.3803 73H45.5483C44.9883 73 44.5963 72.0667 44.3723 70.2C44.1483 68.296 44.0363 65.44 44.0363 61.632C44.0363 57.824 44.1483 54.9867 44.3723 53.12C44.5963 51.2533 44.9883 50.32 45.5483 50.32L65.9883 52.168C66.2496 52.168 66.3803 52.056 66.3803 51.832L66.6603 49.928C66.7349 49.704 66.6229 49.592 66.3243 49.592L49.6923 50.656Z" fill="white"/>
<path d="M91.4241 29.656C92.3201 29.5813 93.0107 29.824 93.4961 30.384C94.0187 30.9067 94.2427 31.616 94.1681 32.512L93.7761 36.712C93.7387 37.16 93.5707 37.552 93.2721 37.888C92.9734 38.1867 92.6001 38.3733 92.1521 38.448L87.6161 39.064C86.9441 39.1387 86.3654 39.008 85.8801 38.672C85.4321 38.2987 85.1707 37.776 85.0961 37.104L84.4241 31.392C84.3121 30.4213 84.7414 29.8987 85.7121 29.824L91.4241 29.656ZM93.6641 41.976C94.1494 41.976 94.4294 42.2373 94.5041 42.76L95.4001 49.592C95.4747 50.0773 95.7547 50.32 96.2401 50.32H99.2641V73H92.8241C92.4881 73 92.1521 72.9253 91.8161 72.776C91.4801 72.5893 91.2187 72.3653 91.0321 72.104L89.5201 69.976L88.1761 72.048C87.7281 72.6827 87.1307 73 86.3841 73H80.0561C79.4214 73 79.0107 72.0667 78.8241 70.2C78.6374 68.296 78.5441 65.44 78.5441 61.632C78.5441 57.824 78.6561 54.9867 78.8801 53.12C79.1041 51.2533 79.4961 50.32 80.0561 50.32H83.8641L85.0961 42.76C85.1707 42.2373 85.4507 41.976 85.9361 41.976H93.6641Z" fill="white"/>
<path d="M114.034 49.2C114.034 49.9467 114.407 50.32 115.154 50.32H118.57V73H112.13C111.906 73 111.682 72.944 111.458 72.832C111.234 72.72 111.066 72.5707 110.954 72.384L108.714 69.192L106.698 72.048C106.25 72.6827 105.671 73 104.962 73H99.2501C98.6901 73 98.2981 72.0667 98.0741 70.2C97.8501 68.296 97.7381 65.44 97.7381 61.632C97.7381 57.824 97.8501 54.9867 98.0741 53.12C98.2981 51.2533 98.6901 50.32 99.2501 50.32H104.178L103.842 43.88C103.842 43.1333 104.197 42.7227 104.906 42.648L112.858 42.088C113.194 42.0507 113.474 42.144 113.698 42.368C113.922 42.5547 114.034 42.816 114.034 43.152V49.2ZM115.882 75.744C116.218 75.7067 116.498 75.7813 116.722 75.968C116.946 76.192 117.077 76.472 117.114 76.808L117.394 82.632C117.431 83.2293 117.282 83.696 116.946 84.032C116.61 84.368 116.162 84.5173 115.602 84.48L101.154 84.2C100.183 84.2 99.6981 83.6773 99.6981 82.632L99.9781 77.368C99.9781 77.032 100.09 76.752 100.314 76.528C100.538 76.304 100.818 76.192 101.154 76.192L115.882 75.744Z" fill="white"/>
<path d="M146.891 50.32H151.147C151.893 50.32 152.211 49.9467 152.099 49.2L151.259 43.096C151.184 42.648 151.259 42.2747 151.483 41.976C151.744 41.6773 152.099 41.4907 152.547 41.416L161.283 40.016C161.843 39.9413 162.309 40.0533 162.683 40.352C163.056 40.6133 163.28 41.0427 163.355 41.64C163.541 43.8053 163.691 46.2133 163.803 48.864C163.915 51.5147 163.971 54.1467 163.971 56.76C163.971 59.448 163.933 61.8747 163.859 64.04C163.784 66.2053 163.672 68.184 163.523 69.976C163.448 70.76 163.149 71.4133 162.627 71.936C162.104 72.4213 161.451 72.7013 160.667 72.776L146.891 73.672C146.181 73.7467 145.696 73.4107 145.435 72.664L144.707 69.976L140.339 71.544C139.181 71.992 137.856 72.3467 136.363 72.608C134.907 72.8693 133.544 73 132.275 73H118.667C117.621 73 117.099 69.2107 117.099 61.632C117.099 54.0907 117.621 50.32 118.667 50.32H121.355C121.803 50.32 122.157 50.1893 122.419 49.928C122.68 49.6293 122.792 49.256 122.755 48.808L122.475 44.664C122.4 44.0667 122.531 43.6 122.867 43.264C123.203 42.8907 123.651 42.6667 124.211 42.592L132.891 41.808C133.488 41.7333 133.955 41.864 134.291 42.2C134.627 42.4987 134.795 42.928 134.795 43.488V49.928L145.435 46.4C145.883 46.2133 146.163 46.3813 146.275 46.904L146.891 50.32Z" fill="white"/>
<path d="M195.753 24.224C196.239 24.224 196.481 24.4853 196.481 25.008L195.697 49.2C195.697 49.9467 196.071 50.32 196.817 50.32H199.449V73H182.425C181.865 73 181.399 72.832 181.025 72.496C180.689 72.1227 180.503 71.656 180.465 71.096L179.849 52.952C179.812 52.504 179.924 52.1307 180.185 51.832C180.484 51.5333 180.857 51.3653 181.305 51.328L190.769 50.712L180.913 49.648C180.391 49.5733 180.129 49.2933 180.129 48.808L178.785 31.056C178.711 30.5707 178.748 30.0853 178.897 29.6C179.047 29.1147 179.271 28.6853 179.569 28.312L181.697 25.4C182.033 24.9147 182.463 24.5413 182.985 24.28C183.545 24.0187 184.124 23.888 184.721 23.888L195.753 24.224Z" fill="white"/>
<path d="M215.734 27.64C216.256 27.64 216.48 27.8827 216.406 28.368L215.846 34.08C215.771 34.8267 215.36 35.2373 214.614 35.312L202.518 36.208C202.07 36.2453 201.696 36.1333 201.398 35.872C201.099 35.6107 200.931 35.256 200.894 34.808L200.502 29.152C200.464 28.592 200.614 28.144 200.95 27.808C201.286 27.472 201.734 27.304 202.294 27.304L215.734 27.64ZM199.494 73C198.934 73 198.542 72.0667 198.318 70.2C198.094 68.296 197.982 65.44 197.982 61.632C197.982 57.824 198.075 54.9867 198.262 53.12C198.411 51.2533 198.822 50.32 199.494 50.32H204.142L203.358 41.976C203.32 41.64 203.395 41.36 203.582 41.136C203.768 40.8747 204.03 40.7067 204.366 40.632L213.494 38.504C214.24 38.3173 214.744 38.5787 215.006 39.288C215.603 40.8187 216.163 42.4053 216.686 44.048C217.246 45.6907 217.712 47.296 218.086 48.864C218.16 49.2747 218.216 49.76 218.254 50.32C218.328 50.8427 218.328 51.3467 218.254 51.832C217.992 54.856 217.619 58.0107 217.134 61.296C216.648 64.544 216.088 67.6987 215.454 70.76C215.304 71.432 214.987 71.9733 214.502 72.384C214.016 72.7947 213.419 73 212.71 73H199.494Z" fill="white"/>
<path d="M287.018 33.688C287.093 34.2107 286.869 34.5093 286.346 34.584L262.098 40.072C261.538 40.184 261.053 40.1093 260.642 39.848C260.231 39.5867 259.951 39.1947 259.802 38.672L257.618 29.88C257.506 29.432 257.543 29.04 257.73 28.704C257.954 28.3307 258.271 28.088 258.682 27.976L284.498 20.304C284.946 20.1173 285.207 20.2853 285.282 20.808L287.018 33.688ZM282.93 50.32H287.186V73H270.946C270.125 73 269.397 72.776 268.762 72.328C268.165 71.8427 267.735 71.2267 267.474 70.48L266.746 68.072L266.074 69.36C265.439 70.4427 264.562 71.32 263.442 71.992C262.322 72.664 261.127 73 259.858 73H238.354C237.197 73 236.245 72.664 235.498 71.992C234.789 71.2827 234.415 70.368 234.378 69.248C234.303 67.904 234.247 66.56 234.21 65.216C234.173 63.8347 234.154 62.64 234.154 61.632C234.154 58.3467 234.247 55.136 234.434 52C234.658 48.8267 235.013 45.616 235.498 42.368C235.573 41.92 235.759 41.584 236.058 41.36C236.357 41.0987 236.73 41.0053 237.178 41.08L242.498 41.696C243.17 41.7707 243.693 42.0507 244.066 42.536C244.477 43.0213 244.645 43.6 244.57 44.272L244.01 50.32H261.706C262.229 50.32 262.453 50.04 262.378 49.48L261.482 45.336C261.333 44.7013 261.407 44.104 261.706 43.544C262.042 42.984 262.527 42.592 263.162 42.368L273.578 38.728C273.989 38.5787 274.399 38.5787 274.81 38.728C275.221 38.84 275.557 39.1013 275.818 39.512L282.93 50.32Z" fill="white"/>
<path d="M301.995 49.2C301.995 49.9467 302.368 50.32 303.115 50.32H306.531V73H300.091C299.867 73 299.643 72.944 299.419 72.832C299.195 72.72 299.027 72.5707 298.915 72.384L296.675 69.192L294.659 72.048C294.211 72.6827 293.632 73 292.923 73H287.211C286.651 73 286.259 72.0667 286.035 70.2C285.811 68.296 285.699 65.44 285.699 61.632C285.699 57.824 285.811 54.9867 286.035 53.12C286.259 51.2533 286.651 50.32 287.211 50.32H292.139L291.803 43.88C291.803 43.1333 292.158 42.7227 292.867 42.648L300.819 42.088C301.155 42.0507 301.435 42.144 301.659 42.368C301.883 42.5547 301.995 42.816 301.995 43.152V49.2ZM303.843 75.744C304.179 75.7067 304.459 75.7813 304.683 75.968C304.907 76.192 305.038 76.472 305.075 76.808L305.355 82.632C305.392 83.2293 305.243 83.696 304.907 84.032C304.571 84.368 304.123 84.5173 303.563 84.48L289.115 84.2C288.144 84.2 287.659 83.6773 287.659 82.632L287.939 77.368C287.939 77.032 288.051 76.752 288.275 76.528C288.499 76.304 288.779 76.192 289.115 76.192L303.843 75.744Z" fill="white"/>
<path d="M322.42 73C321.748 73 321.094 72.832 320.46 72.496C319.825 72.1227 319.34 71.656 319.004 71.096L318.276 69.976L317.38 70.984C316.857 71.6187 316.185 72.1227 315.364 72.496C314.58 72.832 313.796 73 313.012 73H306.572C306.012 73 305.62 71.9733 305.396 69.92C305.172 67.8293 305.06 65.0667 305.06 61.632C305.06 57.824 305.172 54.9867 305.396 53.12C305.62 51.2533 306.012 50.32 306.572 50.32H308.588C309.073 50.32 309.446 50.1893 309.708 49.928C309.969 49.6293 310.062 49.256 309.988 48.808L308.252 28.032C308.177 27.4347 308.289 26.9493 308.588 26.576C308.924 26.2027 309.372 25.9787 309.932 25.904L323.596 24.112C324.156 24.0373 324.604 24.1493 324.94 24.448C325.313 24.7467 325.5 25.176 325.5 25.736L325.556 46.12L324.156 50.32H328.524V73H322.42Z" fill="white"/>
<path d="M328.556 73C328.257 73 328.015 72.6827 327.828 72.048C327.641 71.376 327.492 70.5173 327.38 69.472C327.268 68.3893 327.193 67.176 327.156 65.832C327.081 64.4507 327.044 63.0507 327.044 61.632C327.044 60.4 327.081 59.1307 327.156 57.824C327.193 56.48 327.268 55.2667 327.38 54.184C327.492 53.064 327.641 52.1493 327.828 51.44C328.015 50.6933 328.257 50.32 328.556 50.32H333.708L329.564 29.488C329.452 29.04 329.508 28.648 329.732 28.312C329.956 27.976 330.273 27.7333 330.684 27.584L354.652 20.64C355.137 20.528 355.417 20.7147 355.492 21.2L357.172 34.808C357.247 35.3307 357.041 35.6293 356.556 35.704L345.972 37.44C346.756 38.3733 347.596 39.4 348.492 40.52C349.388 41.6027 350.284 42.6853 351.18 43.768C352.076 44.8133 352.916 45.8213 353.7 46.792C354.484 47.7253 355.119 48.5093 355.604 49.144C355.903 49.48 356.127 49.8907 356.276 50.376C356.425 50.8613 356.481 51.3467 356.444 51.832C356.332 53.288 356.201 54.8373 356.052 56.48C355.903 58.1227 355.735 59.7653 355.548 61.408C355.399 63.0507 355.231 64.6187 355.044 66.112C354.895 67.568 354.764 68.856 354.652 69.976C354.54 70.872 354.167 71.6187 353.532 72.216C352.935 72.776 352.169 73.056 351.236 73.056L339.532 73.336C339.196 73.3733 338.897 73.28 338.636 73.056C338.412 72.8693 338.263 72.608 338.188 72.272L335.388 58.552L336.06 71.488C336.097 71.936 335.967 72.3093 335.668 72.608C335.407 72.8693 335.052 73 334.604 73H328.556Z" fill="white"/>
<path d="M425.268 33.688C425.343 34.2107 425.119 34.5093 424.596 34.584L400.348 40.072C399.788 40.184 399.303 40.1093 398.892 39.848C398.481 39.5867 398.201 39.1947 398.052 38.672L395.868 29.88C395.756 29.432 395.793 29.04 395.98 28.704C396.204 28.3307 396.521 28.088 396.932 27.976L422.748 20.304C423.196 20.1173 423.457 20.2853 423.532 20.808L425.268 33.688ZM421.18 50.32H425.436V73H409.196C408.375 73 407.647 72.776 407.012 72.328C406.415 71.8427 405.985 71.2267 405.724 70.48L404.996 68.072L404.324 69.36C403.689 70.4427 402.812 71.32 401.692 71.992C400.572 72.664 399.377 73 398.108 73H376.604C375.447 73 374.495 72.664 373.748 71.992C373.039 71.2827 372.665 70.368 372.628 69.248C372.553 67.904 372.497 66.56 372.46 65.216C372.423 63.8347 372.404 62.64 372.404 61.632C372.404 58.3467 372.497 55.136 372.684 52C372.908 48.8267 373.263 45.616 373.748 42.368C373.823 41.92 374.009 41.584 374.308 41.36C374.607 41.0987 374.98 41.0053 375.428 41.08L380.748 41.696C381.42 41.7707 381.943 42.0507 382.316 42.536C382.727 43.0213 382.895 43.6 382.82 44.272L382.26 50.32H399.956C400.479 50.32 400.703 50.04 400.628 49.48L399.732 45.336C399.583 44.7013 399.657 44.104 399.956 43.544C400.292 42.984 400.777 42.592 401.412 42.368L411.828 38.728C412.239 38.5787 412.649 38.5787 413.06 38.728C413.471 38.84 413.807 39.1013 414.068 39.512L421.18 50.32Z" fill="white"/>
<path d="M439.909 38.448C440.208 38.3733 440.488 38.4293 440.749 38.616C441.048 38.7653 441.234 38.9893 441.309 39.288C441.794 40.9307 442.261 42.6667 442.709 44.496C443.194 46.3253 443.568 47.8933 443.829 49.2C443.904 49.4987 443.941 49.8533 443.941 50.264C443.978 50.6747 443.978 51.0667 443.941 51.44C443.754 54.1653 443.493 57.04 443.157 60.064C442.858 63.088 442.429 66.4107 441.869 70.032C441.72 70.928 441.328 71.656 440.693 72.216C440.058 72.7387 439.274 73 438.341 73H425.517C424.92 73 424.509 72.0667 424.285 70.2C424.061 68.296 423.949 65.44 423.949 61.632C423.949 57.824 424.024 54.9867 424.173 53.12C424.322 51.2533 424.77 50.32 425.517 50.32H430.053L429.437 42.76C429.362 42.2 429.474 41.7147 429.773 41.304C430.109 40.856 430.557 40.576 431.117 40.464L439.909 38.448ZM439.349 76.136C440.058 76.136 440.618 76.3413 441.029 76.752C441.477 77.2 441.72 77.76 441.757 78.432L442.037 82.744C442.074 83.416 441.888 83.9387 441.477 84.312C441.104 84.7227 440.581 84.9093 439.909 84.872L426.973 84.144C426.301 84.1067 425.76 83.864 425.349 83.416C424.901 83.0053 424.677 82.4453 424.677 81.736V78.432C424.677 77.76 424.901 77.2 425.349 76.752C425.76 76.3413 426.301 76.136 426.973 76.136H439.349Z" fill="white"/>
</g>
<defs>
<filter id="filter0_d_28_305" x="0.802734" y="0.230316" width="467.166" height="112.646" filterUnits="userSpaceOnUse" color-interpolation-filters="sRGB">
<feFlood flood-opacity="0" result="BackgroundImageFix"/>
<feColorMatrix in="SourceAlpha" type="matrix" values="0 0 0 0 0 0 0 0 0 0 0 0 0 0 0 0 0 0 127 0" result="hardAlpha"/>
<feOffset dy="4"/>
<feGaussianBlur stdDeviation="12"/>
<feComposite in2="hardAlpha" operator="out"/>
<feColorMatrix type="matrix" values="0 0 0 0 1 0 0 0 0 1 0 0 0 0 1 0 0 0 0.58 0"/>
<feBlend mode="normal" in2="BackgroundImageFix" result="effect1_dropShadow_28_305"/>
<feBlend mode="normal" in="SourceGraphic" in2="effect1_dropShadow_28_305" result="shape"/>
</filter>
</defs>
</svg>
